<svg xmlns="http://www.w3.org/2000/svg" xmlns:xlink="http://www.w3.org/1999/xlink" viewBox="0 0 720 720"><defs><linearGradient id="a"><stop offset="0" stop-color="#f0f"/><stop offset=".218" stop-color="#00f"/><stop offset=".49" stop-color="#00ff80"/><stop offset=".772" stop-color="#ff0"/><stop offset="1" stop-color="red"/></linearGradient><linearGradient xlink:href="#a" id="b" x1="24.89" y1="111.251" x2="303.299" y2="111.251" gradientUnits="userSpaceOnUse" gradientTransform="matrix(1 0 0 .7732 0 35.65)"/></defs><path d="M658.23 93.532c82.355 82.355 82.355 215.88 0 298.23L360 690.002 61.77 391.772c-82.355-82.355-82.355-215.88 0-298.23 82.355-82.355 215.88-82.355 298.23 0 82.355-82.355 215.88-82.355 298.23 0z" fill="red"/><path d="M633.38 115.81c75.492 75.492 75.492 197.89 0 273.38L360 662.57 86.62 389.19c-75.492-75.492-75.492-197.89 0-273.38 75.492-75.492 197.89-75.492 273.38 0 75.492-75.492 197.89-75.492 273.38 0z" fill="#ff8000"/><path d="M608.53 138.09c68.629 68.629 68.629 179.9 0 248.53L360 635.15 111.47 386.62c-68.629-68.629-68.629-179.9 0-248.53 68.629-68.629 179.9-68.629 248.53 0 68.629-68.629 179.9-68.629 248.53 0z" fill="#ff0"/><path d="M583.68 160.37c61.766 61.766 61.766 161.91 0 223.68L360 607.72 136.32 384.05c-61.766-61.766-61.766-161.91 0-223.68 61.766-61.766 161.91-61.766 223.68 0 61.766-61.766 161.91-61.766 223.68 0z" fill="#80ff00"/><path d="M558.82 182.65c54.903 54.903 54.903 143.92 0 198.82L360 580.29 161.18 381.47c-54.903-54.903-54.903-143.92 0-198.82 54.903-54.903 143.92-54.903 198.82 0 54.903-54.903 143.92-54.903 198.82 0z" fill="#0f0"/><path d="M533.97 204.93c48.04 48.04 48.04 125.93 0 173.97L360 552.87 186.03 378.9c-48.04-48.04-48.04-125.93 0-173.97 48.04-48.04 125.93-48.04 173.97 0 48.04-48.04 125.93-48.04 173.97 0z" fill="#00ff80"/><path d="M509.12 227.21c41.177 41.177 41.177 107.94 0 149.12L360 525.44 210.88 376.32c-41.177-41.177-41.177-107.94 0-149.12 41.177-41.177 107.94-41.177 149.12 0 41.177-41.177 107.94-41.177 149.12 0z" fill="#0ff"/><path d="M484.26 249.49c34.315 34.315 34.315 89.949 0 124.26L360 498.02 235.74 373.75c-34.315-34.315-34.315-89.949 0-124.26 34.315-34.315 89.949-34.315 124.26 0 34.315-34.315 89.949-34.315 124.26 0z" fill="#0080ff"/><path d="M459.41 271.77c27.452 27.452 27.452 71.96 0 99.411L360 470.591l-99.41-99.41c-27.452-27.452-27.452-71.96 0-99.411 27.452-27.452 71.96-27.452 99.411 0 27.452-27.452 71.96-27.452 99.411 0z" fill="#00f"/><path d="M434.56 294.05c20.589 20.589 20.589 53.97 0 74.558L360 443.158l-74.56-74.56c-20.589-20.589-20.589-53.97 0-74.558 20.589-20.589 53.97-20.589 74.558 0 20.589-20.589 53.97-20.589 74.558 0z" fill="#8000ff"/><path d="M409.71 316.32c13.726 13.726 13.726 35.98 0 49.706L360 415.736l-49.71-49.71c-13.726-13.726-13.726-35.98 0-49.706 13.726-13.726 35.98-13.726 49.706 0 13.726-13.726 35.98-13.726 49.706 0z" fill="#f0f"/><path d="M384.85 338.6c6.863 6.863 6.863 17.99 0 24.853l-24.853 24.853-24.853-24.853c-6.863-6.863-6.863-17.99 0-24.853 6.863-6.863 17.99-6.863 24.853 0 6.863-6.863 17.99-6.863 24.853 0z" fill="#ff0080"/><path d="M177.49 130.924c10.756 15.712 30.069 29.48 54.111 30.123 20.845 1.763 42.597-7.233 50.424-22.577 10.429-19.321 2.909-45.834-23.126-55.158-18.753-6.875-41.674-.877-53.819 11.6-11.557 10.79-19.803 23.446-27.589 36.012zm-26.81-18.179c-10.92-16.237-31.7-29.862-56.345-29.871-22.732-1.453-45.352 10.66-50.658 27.957-6.384 18.368 2 41.157 25.598 49.527 18.176 6.624 40.529 1.32 52.728-10.618 12.219-10.94 20.674-24.04 28.681-36.995zm15.601 31.09c-12.66 18.433-29.77 38.482-57.87 43.47-24.714 4.46-51.046-4.61-65.45-20.398-20.602-21.007-21.978-50.056-12.19-74.494 7.615-18.695 28.542-35.438 54.944-36.421 22.84-2.097 44.157 8.179 57.197 22.041 7.513 5.73 16.273 18.75 19.476 22.74 12.093-18.45 29.377-39.708 57.101-44.697 24.023-4.465 49.694 4.158 64.097 19.311 22.38 21.412 24.148 52.056 13.083 77.343-8.086 17.976-28.587 33.876-54.209 34.777-21.808 1.914-42.976-6.824-55.842-20.137-7.739-7.315-14.29-15.334-20.332-23.535z" fill="url(#b)" stroke="#000" transform="matrix(1.88002 0 0 1.88002 52.174 112.848)"/></svg>