<svg xmlns="http://www.w3.org/2000/svg" width="231.247" height="51.966"><path d="M86.373 14.959c6.088 6.089 6.088 15.958 0 22.047-6.088 6.088-15.959 6.088-22.047 0-6.088-6.089-6.088-15.958 0-22.047 6.088-6.088 15.959-6.088 22.047 0M75.366 0a25.9 25.9 0 0 1 18.356 7.61c10.147 10.146 10.147 26.597 0 36.745-10.147 10.146-26.598 10.146-36.745 0-10.146-10.148-10.146-26.599 0-36.745A25.9 25.9 0 0 1 75.332 0zm65.571 14.959c6.088 6.089 6.088 15.958 0 22.047-6.09 6.088-15.959 6.088-22.049 0-6.087-6.089-6.087-15.958 0-22.047 6.09-6.088 15.96-6.088 22.049 0m7.348-7.349c10.146 10.146 10.146 26.597 0 36.745-10.146 10.146-26.598 10.146-36.745 0-10.146-10.148-10.146-26.599 0-36.745A25.903 25.903 0 0 1 129.896 0c6.678.003 13.321 2.541 18.389 7.61M10.393 51.835l2.599.13h38.974l-.13-2.596c-.348-4.278-3.377-7.399-7.665-7.667l-2.598-.13H18.188l31.179-31.18-.13-2.595c-.206-4.313-3.361-7.44-7.666-7.668L38.973.001 0 0l.13 2.596c.336 4.227 3.412 7.422 7.661 7.667l2.602.13h23.385L2.599 41.573l.13 2.596c.256 4.281 3.349 7.382 7.664 7.666m177.88-36.262c.891 1.532 1.17 3.262 1.27 5.213l.131 2.599v18.188l.129 2.596c.258 4.248 3.381 7.395 7.668 7.667l2.596.13v-28.58l.129-2.599c.102-1.928.385-3.695 1.281-5.233a10.391 10.391 0 0 1 8.982-5.16c3.846 0 7.205 2.089 9 5.194.887 1.529 1.16 3.295 1.264 5.199l.131 2.595v18.191l.129 2.596c.27 4.272 3.375 7.419 7.668 7.667l2.596.13V20.787c0-11.479-9.307-20.786-20.787-20.786-6.209 0-11.781 2.722-15.59 7.037-3.809-4.315-9.381-7.037-15.588-7.037-4.314 0-8.32 1.313-11.643 3.563-2.02-2.249-6.547-3.563-9.145-3.563v51.965l2.598-.13c4.34-.285 7.496-3.351 7.666-7.664l.129-2.599V23.385l.131-2.599c.109-1.955.381-3.688 1.275-5.222a10.387 10.387 0 0 1 8.988-5.172c3.84 0 7.194 2.083 8.992 5.181" clip-rule="evenodd" fill="#2d8cff" fill-rule="evenodd"/></svg>